<svg xmlns="http://www.w3.org/2000/svg" xmlns:xlink="http://www.w3.org/1999/xlink" width="500" zoomAndPan="magnify" viewBox="0 0 375 374.999991" height="500" preserveAspectRatio="xMidYMid meet" version="1.0"><defs><clipPath id="c650e57123"><path d="M 15.027344 184 L 55 184 L 55 196 L 15.027344 196 Z M 15.027344 184 " clip-rule="nonzero"/></clipPath><clipPath id="40120ffb57"><path d="M 74 281 L 99 281 L 99 318.460938 L 74 318.460938 Z M 74 281 " clip-rule="nonzero"/></clipPath><clipPath id="e2c48a0dbf"><path d="M 279.453125 344.777344 L 280.902344 344.777344 L 280.902344 346 L 279.453125 346 Z M 279.453125 344.777344 " clip-rule="nonzero"/></clipPath><clipPath id="dade888315"><path d="M 280.875 345.226562 C 280.199219 346.199219 279.675781 346.050781 279.523438 345.824219 C 279.375 345.601562 279.523438 345 279.675781 344.851562 C 279.898438 344.699219 280.648438 344.925781 280.648438 344.925781 " clip-rule="nonzero"/></clipPath></defs><path fill="#2dabe3" d="M 131.882812 105.957031 C 138.546875 98.265625 144.292969 89.460938 152.039062 83.078125 C 195.808594 46.980469 258.847656 61.144531 283.960938 112.019531 C 285.808594 115.765625 289.179688 119.660156 292.835938 121.464844 C 331.21875 140.414062 350.195312 177 342.128906 217.441406 C 334.589844 255.21875 302.078125 282.628906 260.851562 284.742188 C 244.582031 285.574219 228.0625 285.472656 211.894531 283.648438 C 164.308594 278.273438 132.886719 239.394531 136.332031 191.582031 C 137.113281 180.789062 144.347656 173.230469 153.328125 173.808594 C 162.300781 174.390625 168.507812 181.375 167.230469 192.703125 C 163.699219 223.925781 187.507812 255.828125 228.679688 253.871094 C 241.722656 253.25 254.953125 254.152344 267.792969 252.257812 C 293.410156 248.480469 311.910156 226.886719 312.921875 201.589844 C 313.90625 176.851562 296.464844 153.488281 271.414062 147.800781 C 263.09375 145.914062 260.277344 142.113281 258.316406 134.246094 C 249.988281 100.882812 212.132812 84.144531 182.070312 100.699219 C 173.894531 105.195312 166.140625 107.136719 157.070312 106.761719 C 149.351562 106.441406 141.582031 107.433594 133.835938 107.835938 C 133.179688 107.207031 132.53125 106.578125 131.882812 105.957031 Z M 131.882812 105.957031 " fill-opacity="1" fill-rule="nonzero"/><path fill="#fbc927" d="M 173.910156 281.683594 C 121.558594 296.101562 68.46875 252.054688 70.765625 197.179688 C 72.65625 152.039062 106.988281 116.722656 150.976562 114.675781 C 195.046875 112.632812 233.144531 144.089844 239.554688 188.445312 C 240.710938 196.414062 240.335938 204.84375 239.179688 212.847656 C 237.695312 223.121094 230.703125 227.78125 221.152344 226.523438 C 212.824219 225.429688 208.050781 219.804688 208.808594 209.585938 C 210.28125 189.824219 205.898438 172.320312 190.34375 159.203125 C 172.984375 144.566406 153.21875 141.5 132.632812 151.210938 C 112.917969 160.523438 102.109375 176.886719 101.921875 198.792969 C 101.730469 221.40625 112.566406 237.753906 132.714844 248.472656 C 139.914062 252.300781 146.074219 258.152344 152.480469 263.367188 C 159.523438 269.101562 166.304688 275.164062 173.910156 281.683594 Z M 173.910156 281.683594 " fill-opacity="1" fill-rule="nonzero"/><g clip-path="url(#c650e57123)"><path fill="#fbc927" d="M 34.667969 194.855469 C 30.128906 194.855469 25.492188 195.410156 21.097656 194.625 C 18.882812 194.226562 17.089844 191.402344 15.117188 189.679688 C 16.757812 187.910156 18.328125 184.683594 20.050781 184.601562 C 30.039062 184.109375 40.078125 184.054688 50.058594 184.628906 C 51.800781 184.734375 53.339844 188.503906 54.96875 190.582031 C 53.058594 192.011719 51.28125 194.40625 49.222656 194.664062 C 44.445312 195.273438 39.53125 194.855469 34.667969 194.855469 Z M 34.667969 194.855469 " fill-opacity="1" fill-rule="nonzero"/></g><g clip-path="url(#40120ffb57)"><path fill="#fbc927" d="M 77.46875 318.492188 C 76.195312 315.308594 73.460938 311.773438 74.324219 310.058594 C 79.003906 300.757812 84.425781 291.800781 90.035156 283.003906 C 90.832031 281.753906 94.492188 281.117188 95.988281 281.863281 C 97.429688 282.585938 99.042969 286.113281 98.4375 287.3125 C 93.527344 296.851562 88.160156 306.164062 82.773438 315.445312 C 82.21875 316.402344 80.613281 316.738281 77.46875 318.492188 Z M 77.46875 318.492188 " fill-opacity="1" fill-rule="nonzero"/></g><path fill="#fbc927" d="M 117.164062 101.957031 C 115.699219 104.410156 115.070312 106.878906 113.75 107.324219 C 111.964844 107.925781 108.492188 107.726562 107.761719 106.578125 C 102.03125 97.597656 96.625 88.402344 91.570312 79.023438 C 90.855469 77.683594 91.996094 74.265625 93.363281 73.199219 C 94.609375 72.230469 98.523438 72.359375 99.207031 73.378906 C 105.449219 82.722656 111.234375 92.375 117.164062 101.957031 Z M 117.164062 101.957031 " fill-opacity="1" fill-rule="nonzero"/><path fill="#fbc927" d="M 63.992188 241.417969 C 63.917969 249 35.003906 266.003906 31.210938 262.613281 C 29.726562 261.296875 29.789062 255.171875 31.1875 254.207031 C 39.222656 248.691406 47.707031 243.742188 56.4375 239.402344 C 58.34375 238.457031 61.886719 240.796875 63.992188 241.417969 Z M 63.992188 241.417969 " fill-opacity="1" fill-rule="nonzero"/><path fill="#fbc927" d="M 75.390625 140.425781 C 71.820312 141.328125 68.246094 143.507812 66.242188 142.511719 C 57.53125 138.183594 49.148438 133.132812 40.992188 127.816406 C 39.542969 126.871094 38.902344 123.171875 39.460938 121.191406 C 39.808594 119.960938 43.777344 118.339844 45 118.992188 C 54.421875 124.015625 63.589844 129.496094 72.742188 135.003906 C 73.644531 135.558594 73.871094 137.226562 75.390625 140.425781 Z M 75.390625 140.425781 " fill-opacity="1" fill-rule="nonzero"/><g clip-path="url(#e2c48a0dbf)"><g clip-path="url(#dade888315)"><path fill="#ffffff" d="M 276.523438 341.851562 L 283.941406 341.851562 L 283.941406 349.125 L 276.523438 349.125 Z M 276.523438 341.851562 " fill-opacity="1" fill-rule="nonzero"/></g></g></svg>